<svg clip-rule="evenodd" fill-rule="evenodd" height="2048" image-rendering="optimizeQuality" shape-rendering="geometricPrecision" text-rendering="geometricPrecision" viewBox="0 0 2048 2048" width="2048" xmlns="http://www.w3.org/2000/svg" xmlns:xlink="http://www.w3.org/1999/xlink"><clipPath id="a"><path d="m1024-.0011811c565.541 0 1024 458.461 1024 1024 0 565.541-458.461 1024-1024 1024-565.541 0-1024-458.461-1024-1024 0-565.541 458.461-1024 1024-1024z"/></clipPath><path d="m1024-.0011811c565.541 0 1024 458.461 1024 1024 0 565.541-458.461 1024-1024 1024-565.541 0-1024-458.461-1024-1024 0-565.541 458.461-1024 1024-1024z" fill="#26c6da"/><g clip-path="url(#a)" fill="#0097a7"><path d="m715.236 880.854 1135.884 1135.886-.04 4.06-.12 4.04-.2 4.01-.27 3.99-.35 3.96-.43 3.93-.5 3.9-.57 3.86-.65 3.84-.71 3.8-.79 3.76-.86 3.73-.92 3.69-.99 3.65-1.06 3.61-1.13 3.57-1.19 3.52-1.25 3.48-1.32 3.44-1.38 3.39-1.44 3.34-1.49 3.29-1.56 3.24-1.62 3.19-1.67 3.13-1.73 3.09-1.78 3.02-1.84 2.97-1.89 2.91-1.94 2.85-2 2.8-2.04 2.73-1135.884-1135.887 2.045-2.73 1.995-2.792 1.943-2.851 1.891-2.911 1.837-2.97 1.784-3.026 1.729-3.081 1.673-3.136 1.614-3.189 1.558-3.241 1.499-3.292 1.438-3.34 1.379-3.388 1.315-3.435 1.254-3.481 1.189-3.525 1.126-3.568 1.059-3.61.992-3.65.925-3.689.857-3.728.787-3.764.717-3.801.646-3.834.573-3.867.499-3.898.426-3.93.35-3.959.274-3.987.198-4.014.118-4.039z"/><path d="m679.506 992.643 1135.884 1135.887-1.87 2.38-1.9 2.32-1.94 2.28-1.98 2.23-2.01 2.17-2.05 2.12-2.09 2.07-2.12 2.01-2.15 1.95-2.19 1.9-2.22 1.84-2.25 1.78-2.28 1.72-2.32 1.66-2.34 1.6-2.38 1.54-2.4 1.48-2.43 1.41-2.46 1.35-2.49 1.28-2.51 1.21-2.54 1.15-2.57 1.08-2.58 1.02-2.62.94-2.63.87-2.66.81-2.68.73-2.7.65-2.72.59-2.75.51-2.76.43-1135.879-1135.88 2.761-.43 2.742-.51 2.723-.59 2.701-.66 2.68-.73 2.659-.8 2.635-.87 2.612-.95 2.588-1.01 2.564-1.08 2.54-1.15 2.513-1.22 2.486-1.28 2.459-1.34 2.432-1.42 2.404-1.47 2.375-1.54 2.344-1.6 2.315-1.66 2.285-1.72 2.252-1.78 2.221-1.84 2.187-1.9 2.154-1.95 2.12-2.01 2.085-2.07 2.05-2.12 2.014-2.17 1.979-2.23 1.939-2.278 1.903-2.329z"/><path d="m578.03 1040.08 1135.88 1135.88-2.86-.37-2.85-.45-2.82-.54-2.8-.61-2.78-.69-2.76-.76-2.74-.85-2.71-.92-2.68-.99-2.66-1.06-2.63-1.14-2.61-1.21-2.58-1.28-2.55-1.35-2.52-1.42-2.49-1.49-2.46-1.56-2.43-1.62-2.4-1.68-2.37-1.75-2.33-1.82-2.3-1.87-2.26-1.94-2.23-2-1135.884-1135.88 2.229 2 2.264 1.93 2.298 1.88 2.333 1.82 2.366 1.75 2.399 1.68 2.429 1.62 2.461 1.56 2.493 1.48 2.52 1.42 2.551 1.35 2.579 1.28 2.606 1.21 2.634 1.14 2.659 1.07 2.686.99 2.709.92 2.734.84 2.758.77 2.781.69 2.802.61 2.823.54 2.845.45z"/><path d="m603.639 1140.76 1135.881 1135.89.01 1.62.01 1.6.02 1.56.03 1.53.04 1.49.05 1.46.06 1.43.06 1.41-1135.882-1135.89-.064-1.4-.056-1.43-.048-1.46-.04-1.5-.03-1.52-.023-1.56-.013-1.6z"/><path d="m605.457 1152.85 1135.883 1135.89.6 4.15.7 3.81.77 3.49.86 3.21.93 2.95.99 2.73 1.05 2.53 1.09 2.37 1.14 2.22 1.17 2.12 1.19 2.04 1.22 1.99 1.23 1.98 1.23 1.98 1.23 2.03 1.22 2.09 1.2 2.2 1.18 2.32 1.14 2.49 1.11 2.67 1.06 2.89 1 3.14.95 3.42.87 3.72.81 4.06.71 4.43.63 4.82.53 5.25.42 5.71.32 6.19.19 6.7.07 7.25-1135.886-1135.89-.066-7.24-.192-6.71-.312-6.19-.425-5.7-.53-5.25-.627-4.82-.718-4.43-.801-4.06-.875-3.72-.945-3.42-1.006-3.14-1.059-2.89-1.107-2.67-1.146-2.49-1.177-2.32-1.202-2.2-1.22-2.09-1.228-2.03-1.233-1.98-1.227-1.98-1.216-1.99-1.196-2.04-1.169-2.12-1.137-2.23-1.094-2.36-1.047-2.53-.99-2.73-.928-2.95-.857-3.21-.78-3.49-.694-3.81z"/><path d="m603.921 1039.73 1135.879 1135.88-.28 101.04-1135.881-1135.89z"/><path d="m1125.25 594.739 1135.89 1135.881-.76-.8-.75-.67-.73-.54-.73-.41-.72-.3-.71-.18-.69-.09-.68.01-1135.88-1135.881.68-.01.69.085.71.188.72.297.73.412.73.537.75.666z"/><path d="m1119.49 591.759 1135.88 1135.881-.18.02-.19.02-.17.03-.18.04-.18.04-.18.05-.17.05-.18.06-1135.88-1135.881.18-.059.17-.053.18-.048.18-.042.17-.036.18-.031.18-.024z"/><path d="m1090.87 613.239 1135.88 1135.881-6.26 3.4-6.44 3.25-6.62 3.08-6.78 2.94-6.94 2.77-7.09 2.62-7.23 2.47-7.36 2.31-7.5 2.16-7.62 2.01-7.73 1.85-7.84 1.71-7.93 1.55-8.03 1.4-8.12 1.25-8.19 1.1-8.26.95-8.33.8-8.38.65-8.43.51-8.47.36-8.5.21-8.53.06-8.55-.08-8.56-.22-8.57-.37-8.56-.52-8.55-.66-8.54-.8-8.51-.94-8.48-1.09-8.43-1.23-1135.885-1135.881 8.438 1.228 8.478 1.087 8.51.945 8.535.802 8.552.658 8.563.515 8.566.371 8.56.225 8.549.081 8.531-.065 8.503-.212 8.471-.359 8.428-.505 8.381-.654 8.326-.802 8.262-.95 8.192-1.1 8.114-1.251 8.03-1.399 7.936-1.551 7.84-1.703 7.73-1.853 7.62-2.007 7.5-2.16 7.36-2.313 7.23-2.467 7.09-2.621 6.94-2.776 6.78-2.931 6.61-3.088 6.45-3.244z"/><path d="m1487.13 1054.93 1135.88 1135.88-1.17.07-1.13.07-1.1.05-1.08.05-1.04.04-1.01.03-.99.03-.96.02-1135.88-1135.89.96-.02.98-.02 1.02-.03 1.04-.04 1.08-.05 1.1-.06 1.13-.06z"/><path d="m1478.65 1055.28 1135.88 1135.89h-.09l-1135.88-1135.88z"/><path d="m1478.56 1055.29 1135.88 1135.88h-.1l-1135.88-1135.89z"/><path d="m1478.46 1055.28 1135.88 1135.89-.96-.02-.98-.03-1.02-.03-1.04-.04-1.08-.05-1.1-.05-1.13-.07-1.16-.07-1135.89-1135.88 1.17.07 1.13.06 1.1.06 1.08.05 1.04.04 1.02.03.98.02z"/><path d="m1402.21 953.828 1135.88 1135.882-1.65-1.49-1.62-1.54-1.57-1.58-1.53-1.62-1135.89-1135.887 1.54 1.628 1.57 1.581 1.61 1.536z"/><path d="m1410.71 962.394 1135.88 1135.886-1.86-2.03-1.79-1.88-1.71-1.72-1.61-1.56-1.53-1.38-1135.88-1135.882 1.52 1.385 1.62 1.556 1.71 1.721 1.79 1.878z"/><path d="m1410.65 620.778 1135.88 1135.882-8.33-.14-8.33-.14-8.32-.15-8.33-.15-8.33-.14-8.32-.16-8.33-.15-8.33-.16-8.33-.15-8.33-.16-8.32-.17-8.33-.16-8.33-.17-8.33-.16-8.33-.17-8.33-.18-8.32-.17-8.33-.17-8.33-.18-8.33-.18-8.33-.18-8.33-.18-8.32-.19-8.33-.18-8.33-.19-8.33-.19-8.32-.19-8.33-.19-8.32-.2-8.33-.19-8.33-.2-8.32-.2-1135.88-1135.883 8.32.199 8.33.197 8.32.196 8.33.194 8.33.192 8.32.192 8.33.189 8.33.188 8.33.186 8.32.184 8.33.182 8.33.181 8.33.18 8.33.177 8.32.175 8.33.173 8.33.173 8.33.168 8.33.169 8.33.166 8.32.164 8.33.162 8.33.159 8.33.158 8.33.156 8.32.154 8.33.152 8.33.149 8.33.148 8.32.145 8.33.143z"/><path d="m1118.06 592.069 1135.88 1135.881-.63.24-.65.28-.64.3-.65.33-.66.36-.65.39-.66.41-.66.43-1135.88-1135.879.66-.433.65-.409.66-.387.66-.36.65-.333.64-.305.65-.274z"/><path d="m1112.86 594.811 1135.88 1135.879-1.74 1.24-1.73 1.35-1.69 1.42-1.65 1.46-1.57 1.47-1.5 1.44-1.4 1.38-1.29 1.29-1135.88-1135.885 1.29-1.287 1.4-1.381 1.5-1.441 1.57-1.468 1.65-1.461 1.69-1.421 1.73-1.346z"/><path d="m1144.17 615.287 1135.88 1135.883-2.04-.02-1.99-.35-1.89-.65-1.76-.95-1.6-1.22-1.39-1.48-1135.88-1135.878 1.39 1.477 1.6 1.218 1.76.948 1.89.655 1.99.347z"/><path d="m1408.62 723.146 1135.88 1135.884.24.66.2.68.17.7.13.7.09.72.05.73.02.73-.03.75-1135.88-1135.885.03-.745-.02-.736-.05-.728-.1-.716-.13-.707-.16-.693-.2-.679z"/><path d="m1400.46 873.875 1135.88 1135.885-.04.83-.05.88-.03.93-.03.96-.02 1.01-.02 1.05-.01 1.09v1.13l-1135.88-1135.884v-1.13l.01-1.09.02-1.049.02-1.006.03-.965.03-.924.04-.88z"/><path d="m1436.37 578.195 1135.88 1135.885-.15 2.41-.27 2.4-.37 2.38-.49 2.37-.59 2.36-.7 2.35-.81 2.33-.91 2.32-1.02 2.32-1.12 2.3-1.21 2.3-1.32 2.29-1.42 2.27-1.52 2.27-1.61 2.27-1.7 2.25-1135.89-1135.877 1.71-2.257 1.61-2.265 1.52-2.27 1.42-2.278 1.31-2.287 1.22-2.296 1.12-2.304 1.02-2.314.91-2.324.81-2.335.7-2.347.59-2.359.49-2.37.37-2.384.27-2.397z"/><path d="m1409.49 728.815 1135.88 1135.885-9.03 145.06-1135.88-1135.885z"/><path d="m1421.7 538.276 1135.88 1135.884.13.36.38.69.61 1 .81 1.29.97 1.56 1.09 1.81 1.19 2.04 1.25 2.24 1.26 2.44 1.27 2.6 1.22 2.75 1.14 2.88 1.03 2.99.88 3.07.71 3.14.49 3.19-1135.88-1135.879-.5-3.19-.7-3.142-.89-3.076-1.03-2.987-1.14-2.878-1.21-2.751-1.27-2.602-1.27-2.434-1.24-2.245-1.19-2.038-1.09-1.808-.97-1.559-.81-1.29-.61-1.001-.39-.691z"/><path d="m1436.13 572.331 1135.88 1135.879v.04l.01.04v.04l.01.04v.04l.01.04v.04l.01.04-1135.89-1135.886v-.039-.04l-.01-.039v-.039l-.01-.039v-.039l-.01-.039z"/><path d="m1436.16 572.644 1135.89 1135.886.07.69.05.69.05.69.03.7.02.69.01.7-.01.69-.02.7-1135.88-1135.885.02-.695.01-.694-.01-.696-.02-.694-.03-.694-.05-.694-.06-.692z"/><path d="m1421.15 615.393 1135.89 1135.877-.94 1.19-1.07 1.07-1.18.93-1.3.79-1.4.63-1.47.45-1.55.27-1.6.08-1135.88-1135.886 1.6-.075 1.55-.271 1.47-.455 1.4-.626 1.29-.785 1.19-.933 1.07-1.067z"/><path d="m1450.18 723.771 1135.88 1135.879 12.9 217.84-1135.88-1135.884z"/><path d="m1503.68 720.957 1135.88 1135.883 18.6 213.26-1135.89-1135.88z"/><path d="m1400.26 881.756 1135.88 1135.884.01 2.52.11 2.47.19 2.41.29 2.35.37 2.29.46 2.24.54 2.19.62 2.13.7 2.07.78 2.02.85 1.96.93 1.91 1 1.85 1.07 1.8 1.14 1.75 1.21 1.69 1.27 1.63 1.33 1.59-1135.88-1135.884-1.33-1.584-1.27-1.637-1.21-1.692-1.14-1.744-1.07-1.799-1-1.853-.93-1.909-.85-1.963-.78-2.017-.7-2.073-.62-2.13-.54-2.183-.46-2.241-.37-2.296-.29-2.352-.19-2.409-.11-2.465z"/><path d="m1583.65 872.225 1135.88 1135.885.08 1.39.07 1.34.06 1.28.05 1.21.04 1.17.03 1.1.02 1.05v.99l-1135.88-1135.884-.01-.99-.01-1.047-.03-1.105-.04-1.162-.05-1.219-.06-1.278-.07-1.335z"/><path d="m1548.49 723.146 1135.88 1135.884 35.16 149.08-1135.88-1135.885z"/><path d="m1584 881.756 1135.88 1135.884-.03 3.07-.1 3.02-.16 2.95-.23 2.91-.29 2.85-.35 2.79-.4 2.74-.48 2.68-.53 2.63-.58 2.58-.65 2.52-.7 2.47-.76 2.42-.81 2.36-.87 2.31-.92 2.27-.97 2.21-1.02 2.16-1.08 2.11-1.12 2.06-1.17 2.01-1.22 1.96-1.27 1.91-1.31 1.87-1.36 1.81-1.4 1.77-1.45 1.72-1.49 1.68-1.54 1.62-1.57 1.58-1.61 1.54-1.66 1.49-1135.88-1135.882 1.66-1.49 1.61-1.536 1.57-1.581 1.54-1.628 1.49-1.675 1.44-1.72 1.41-1.769 1.36-1.816 1.31-1.864 1.27-1.913 1.22-1.961 1.17-2.011 1.12-2.06 1.08-2.11 1.02-2.16.97-2.211.92-2.262.87-2.313.81-2.365.76-2.418.7-2.469.65-2.523.58-2.576.53-2.629.47-2.684.41-2.738.35-2.793.29-2.848.23-2.903.16-2.958.1-3.016z"/><path d="m1100.29 605.855 1135.88 1135.885-1.24 1.23-1.19 1.16-1.16 1.09-1.14.99-1.13.89-1.15.79-1.18.68-1.23.55-1135.88-1135.881 1.22-.553 1.18-.676 1.15-.789 1.14-.895 1.14-.992 1.16-1.082 1.19-1.161z"/><path d="m1554.9 953.828 1135.88 1135.882-1.47 1.34-1.57 1.5-1.64 1.65-1.73 1.81-1.79 1.94-1.86 2.08-1.92 2.2-1.97 2.32-2.01 2.43-2.06 2.54-2.1 2.64-2.12 2.73-2.15 2.81-2.17 2.88-2.18 2.96-2.18 3.02-2.19 3.07-2.18 3.13-2.17 3.16-2.16 3.2-2.13 3.22-2.1 3.25-2.07 3.25-2.04 3.27-1.98 3.26-1.94 3.25-1.87 3.23-1.82 3.22-1.75 3.18-1.67 3.15-1.59 3.1-1.5 3.05-1135.89-1135.88 1.51-3.05 1.59-3.1 1.67-3.15 1.75-3.18 1.81-3.22 1.88-3.23 1.94-3.26 1.98-3.26 2.03-3.26 2.08-3.25 2.1-3.25 2.13-3.22 2.16-3.2 2.17-3.165 2.18-3.123 2.19-3.074 2.18-3.019 2.18-2.957 2.17-2.887 2.15-2.811 2.12-2.728 2.1-2.636 2.06-2.538 2.01-2.434 1.97-2.321 1.92-2.203 1.86-2.076 1.79-1.943 1.72-1.803 1.65-1.654 1.57-1.502z"/><path d="m1492.81 1041.67 1135.89 1135.88-.42.87-.41.87-.41.86-.39.86-.39.85-.38.85-.37.84-.36.83-.35.83-.35.82-.33.82-.33.8-.31.8-.31.8-.3.78-.28.78-1135.88-1135.88.28-.78.3-.78.31-.8.31-.8.33-.81.33-.81.35-.82.35-.83.36-.83.37-.84.38-.85.39-.85.39-.86.4-.86.41-.87z"/><path d="m837.535 646.739 1135.885 1135.881-7.06-1.14-7.02-1.24-6.98-1.34-6.94-1.43-6.9-1.53-6.85-1.63-6.8-1.73-6.73-1.83-6.67-1.93-6.61-2.02-6.53-2.11-6.46-2.22-6.37-2.31-6.3-2.41-6.2-2.5-6.1-2.6-6.01-2.7-5.91-2.79-5.8-2.89-5.69-2.99-5.57-3.08-5.45-3.17-5.33-3.27-5.19-3.37-5.07-3.46-4.92-3.55-4.78-3.65-4.64-3.74-4.48-3.84-4.33-3.93-4.17-4.02-1135.881-1135.887 4.168 4.024 4.329 3.931 4.484 3.837 4.635 3.743 4.783 3.649 4.925 3.553 5.062 3.46 5.198 3.365 5.326 3.27 5.451 3.175 5.572 3.079 5.687 2.985 5.799 2.889 5.907 2.792 6.009 2.698 6.108 2.6 6.202 2.506 6.29 2.408 6.377 2.311 6.457 2.216 6.533 2.118 6.605 2.021 6.673 1.924 6.735 1.827 6.794 1.729 6.848 1.631 6.898 1.533 6.944 1.435 6.984 1.338 7.02 1.239z"/><path d="m665.774 753.586 1135.876 1135.884 2.42 2.4 2.36 2.47 2.31 2.55 2.27 2.62 2.21 2.68 2.17 2.75-1135.884-1135.878-2.163-2.753-2.215-2.684-2.265-2.617-2.315-2.546-2.364-2.474z"/><path d="m679.506 769.062 1135.884 1135.878 2.04 2.73 2 2.8 1.94 2.85 1.89 2.91 1.84 2.97 1.78 3.02 1.73 3.09 1.67 3.13 1.62 3.19 1.56 3.24 1.49 3.29 1.44 3.34 1.38 3.39 1.32 3.44 1.25 3.48 1.19 3.52 1.13 3.57 1.06 3.61.99 3.65.92 3.69.86 3.73.79 3.76.71 3.8.65 3.84.57 3.87.5 3.89.43 3.93.35 3.96.27 3.99.2 4.01.12 4.04.04 4.07-1135.884-1135.886-.04-4.063-.118-4.04-.198-4.014-.274-3.986-.35-3.959-.426-3.93-.499-3.899-.573-3.868-.646-3.834-.717-3.799-.787-3.766-.857-3.727-.925-3.69-.992-3.65-1.059-3.61-1.126-3.568-1.189-3.525-1.254-3.48-1.315-3.436-1.379-3.389-1.438-3.34-1.499-3.292-1.558-3.24-1.614-3.189-1.673-3.135-1.729-3.083-1.784-3.026-1.837-2.969-1.891-2.912-1.943-2.851-1.995-2.792z"/><path d="m1297.7 883.9 1135.88 1135.88 11.23 12.97 10.61 13.5 9.96 14.01 9.3 14.49 8.6 14.97 7.89 15.41 7.16 15.82 6.4 16.23 5.61 16.6 4.82 16.96 3.99 17.29 3.14 17.6 2.27 17.88 1.38 18.14.47 18.39-.47 18.39-1.38 18.15-2.27 17.88-3.14 17.6-3.99 17.29-4.82 16.95-5.61 16.61-6.4 16.22-7.16 15.83-7.89 15.41-8.6 14.96-9.3 14.5-9.96 14.01-10.61 13.5-11.23 12.96-11.83 12.41-12.41 11.84-12.97 11.23-13.5 10.6-14 9.97-14.5 9.29-14.97 8.61-15.4 7.89-15.83 7.15-16.23 6.4-16.6 5.62-16.96 4.81-17.29 3.99-17.59 3.15-17.89 2.27-18.14 1.38-18.39.46-18.39-.46-18.15-1.38-17.88-2.27-17.6-3.15-17.28-3.99-16.96-4.81-16.6-5.62-16.23-6.4-15.83-7.15-15.41-7.89-14.96-8.61-14.5-9.29-14.01-9.97-13.5-10.6-12.96-11.23-1135.884-1135.89 12.966 11.23 13.499 10.61 14.009 9.96 14.498 9.3 14.965 8.6 15.406 7.89 15.829 7.16 16.227 6.4 16.603 5.62 16.957 4.81 17.288 3.99 17.596 3.14 17.883 2.28 18.148 1.38 18.39.46 18.39-.46 18.14-1.38 17.89-2.28 17.59-3.14 17.29-3.99 16.96-4.81 16.6-5.62 16.23-6.4 15.83-7.16 15.4-7.89 14.97-8.6 14.49-9.3 14.01-9.96 13.5-10.61 12.97-11.23 12.41-11.83 11.83-12.41 11.23-12.96 10.61-13.5 9.96-14.01 9.3-14.5 8.6-14.96 7.89-15.41 7.16-15.83 6.4-16.23 5.61-16.6 4.82-16.96 3.99-17.28 3.14-17.6 2.27-17.88 1.38-18.15.47-18.39-.47-18.39-1.38-18.14-2.27-17.89-3.14-17.59-3.99-17.29-4.82-16.96-5.61-16.6-6.4-16.229-7.16-15.828-7.89-15.408-8.6-14.963-9.3-14.498-9.96-14.01-10.61-13.499z"/><path d="m1510.03 1514.98 1135.88 1135.88-1.83 1.65-1.88 1.53-1.92 1.4-1.96 1.28-2 1.17-2.02 1.04-2.06.93-2.07.81-2.1.7-2.12.58-2.12.48-2.14.37-2.14.26-2.15.15-2.14.06-2.14-.06-1135.88-1135.88 2.14.05 2.14-.05 2.14-.15 2.15-.26 2.13-.37 2.13-.48 2.12-.58 2.1-.7 2.07-.81 2.06-.93 2.02-1.05 2-1.16 1.96-1.28 1.92-1.41 1.88-1.52z"/><path d="m1522.85 1494.43 1135.88 1135.88-.46 1.47-.51 1.45-.56 1.43-.61 1.41-.66 1.38-.7 1.36-.74 1.33-.79 1.31-.84 1.29-.87 1.25-.92 1.22-.96 1.2-.99 1.16-1.03 1.13-1.07 1.1-1.11 1.06-1135.88-1135.88 1.11-1.07 1.07-1.09 1.03-1.13.99-1.16.96-1.2.92-1.22.87-1.26.83-1.28.79-1.31.75-1.33.7-1.36.66-1.39.61-1.4.56-1.43.51-1.45z"/><path d="m1522.85 1494.43 1135.88 1135.88.4-1.45.35-1.46.3-1.49.25-1.5.2-1.53.14-1.54.08-1.56.03-1.57-1135.88-1135.88-.03 1.57-.08 1.56-.14 1.54-.2 1.52-.25 1.51-.3 1.48-.35 1.47z"/><path d="m634.264 1261.8 1135.886 1135.89-.01 221.11-.06 2.24-.18 2.23-.3 2.2-.41 2.16-.52 2.13-.63 2.1-.73 2.05-.84 2.02-.93 1.96-1.03 1.91-1.12 1.87-1.21 1.8-1.29 1.74-1.38 1.68-1.45 1.62-1.53 1.54-1135.883-1135.88 1.531-1.54 1.455-1.62 1.376-1.68 1.293-1.74 1.209-1.81 1.118-1.86 1.029-1.91.933-1.97.835-2.01.734-2.05.629-2.1.522-2.13.412-2.17.298-2.19.181-2.23.061-2.25z"/><path d="m620.647 1514.17 1135.883 1135.88-.08.08-.08.08-.08.08-.07.08-.08.08-.08.08-.08.08-.08.08-1.78 1.69-1.84 1.57-1.88 1.43-1.92 1.31-1.96 1.19-1.99 1.06-2.02.94-2.04.82-2.07.71-2.09.59-2.1.47-2.11.36-2.11.25-2.12.15-2.11.03-2.11-.07-2.1-.17-2.08-.27-2.07-.38-2.04-.47-2.02-.57-1.99-.66-1.95-.76-1.92-.84-1.87-.94-1.83-1.03-1.78-1.11-1.72-1.19-1.67-1.28-1135.883-1135.88 1.668 1.28 1.726 1.19 1.778 1.11 1.829 1.03 1.874.93 1.917.85 1.953.76 1.988.66 2.019.57 2.043.47 2.066.38 2.083.27 2.099.17 2.107.07 2.114-.04 2.117-.14 2.115-.25 2.109-.36 2.098-.48 2.086-.59 2.068-.7 2.047-.82 2.021-.94 1.991-1.06 1.959-1.19 1.92-1.31 1.88-1.43 1.835-1.57 1.784-1.69.079-.08.078-.08.08-.08.078-.08.077-.08.078-.08.078-.08z"/><path d="m1477.24 1527.33 1135.88 1135.88-2-.11-1.97-.21-1.94-.29-1.92-.37-1.89-.45-1.86-.53-1.83-.6-1.79-.68-1.75-.76-1.72-.82-1.68-.89-1.63-.96-1.59-1.03-1.54-1.09-1.5-1.14-1.45-1.21-1135.88-1135.89 1.45 1.21 1.5 1.15 1.54 1.09 1.59 1.03 1.63.96 1.68.89 1.71.82 1.76.76 1.79.68 1.83.6 1.85.53 1.9.45 1.92.37 1.94.29 1.97.2z"/><path d="m1449.18 1516.18 1135.88 1135.88h-.01l-1135.88-1135.88z"/><path d="m1449.17 1516.17 1135.88 1135.88-1135.89-1135.88z"/><path d="m1477.24 1527.33c-10.702-.398032-20.4803-4.54489-28.0559-11.1484-.00590552-.00590552-.0129921-.011811-.0188977-.0165354 7.81182 6.6815 17.7862 10.676 28.0748 11.165zm32.7933-12.3567c-9.64843 9.14883-21.4122 12.8976-32.7933 12.3567.0106299.0011811.0200788.0011811.0307087.0011811.553937.0200788 1.10906.0307087 1.66772.0307087l.65315-.00826772h.0472441c11.648-.18189 22.3536-4.90394 30.3945-12.3803zm12.8162-20.5453c-2.32087 7.88505-6.83032 14.9788-12.8162 20.5453.317717-.301181.633071-.608268.946064-.921261 5.4378-5.43898 9.64725-12.111 11.8701-19.624zm1.75276-12.1039c0 4.03111-.572835 7.96536-1.64173 11.7236-.0366142.127559-.0732284.253937-.111024.380315 1.13504-3.83268 1.75276-7.88505 1.75276-12.1039zm59.3989-600.57c0 33.0709-11.2536 56.4166-29.0977 72.0721-15.2646 13.3902-46.5048 55.5957-62.0882 87.841-2.25591 4.6689-4.18465 9.12875-5.68819 13.2614-3.14055.196063-5.96221.311811-8.47442.351969l-.0956694.00236221-.0968505-.00236221c-2.51339-.0401575-5.33386-.155906-8.47442-.351969-1.16811-3.21142-2.59252-6.6189-4.22835-10.1693-15.0083-32.5796-47.791-77.1107-63.5481-90.9331-17.8441-15.6555-29.0988-39.0012-29.0988-72.0721l.351969-9.5315 35.1591-149.079c.67441 1.75276.992127 3.67323.869292 5.6693l-9.02717 145.06c-.137008 2.17559-.20315 4.81181-.20315 7.8815-.368504 27.2103 15.3992 44.6764 37.0583 53.5264l12.8599-211.512 12.9059 217.836c5.02678.54567 10.1433.748819 15.2599.618898l.212599-.00472441.211417.00472441c6.04961.153543 12.098-.158268 17.9988-.950788l6.91654-220.317 18.5917 213.262c20.3717-9.15001 34.9299-26.3044 34.5756-52.4634 0-3.06969-.0661418-5.70591-.201969-7.88268l-8.15788-150.728 35.1579 149.079c.236221 3.79725.351969 6.96733.351969 9.5315zm-941.309-361.119 478.174 8.03032 290.638 4.88032c3.81851-.119291 7.64174 1.50591 10.1988 4.72796-.108662 1.01811 12.424 16.95 14.426 34.0548.0141732.103937.0259843.207874.0366142.312992.201969 1.8437.282284 3.69922.206693 5.55119-.518504 12.8965-5.863 25.1764-15.2173 37.1977-2.29961 3.32362-6.16418 5.47441-10.5083 5.40119v-.0153543c-88.8119-1.48937-177.678-3.3626-266.478-5.49095-5.48268.396851-10.7728-2.87835-12.6933-8.31142l.0389764-.0141732c-4.26024-12.0307-8.42009-15.4973-12.0272-15.2032-.485433.0389764-.960237.146457-1.42441.31063-1.68898.597638-3.44764 1.5626-5.20276 2.74134-4.65945 3.12992-9.29764 7.76812-12.5728 11.0445-3.38386 3.38268-6.07796 6.07678-9.41694 7.38426-65.8146 37.1138-163.558 47.3575-253.335 33.4996-75.3827-11.6374-146.052-40.1185-187.858-84.5446-4.37953-4.65355-14.8571-15.9295-18.4488-24.2563-.798426-1.84843-1.25669-3.55276-1.23307-5.00552.111024-6.90119 5.79685-12.4063 12.6969-12.2953zm747.837 603.524c0 197.348-159.983 357.33-357.331 357.33s-357.331-159.982-357.331-357.33c0-197.349 159.983-357.331 357.331-357.331s357.331 159.982 357.331 357.331zm-675.292-243.307c0 43.4681-13.6547 83.0056-35.7296 111.789-19.6736 25.65-46.0276 42.8552-75.5859 47.087l-.281103 101.033c0 4.38898.0968505 8.40709.27874 12.1004l1.53898-.00826772c5.90788 46.2461 28.8071 28.6299 28.8071 108.95l-.0011811 221.108c0 12.0508-5.25473 23.211-13.6158 31.2579-.206693.214961-.415748.427559-.625985.637796-18.763 18.763-46.604 15.0709-61.9123-1.47402-7.74568-7.97481-12.5185-18.8327-12.4937-30.7264l.912993-219.282c.244488-76.4634 24.3437-65.0327 29.9492-110.31l1.40197-.00826772c.0992127-2.55355.151181-5.25473.151181-8.1189l-.0011811-104.808c-30.6579-3.54095-58.0264-21.0047-78.3001-47.4378-22.0748-28.7835-35.7296-68.3209-35.7296-111.79 0-43.4681 13.6547-83.0068 35.7296-111.789 22.7965-29.7225 54.5599-48.1063 89.8879-48.1063s67.0926 18.3839 89.889 48.1052c22.0748 28.7835 35.7296 68.3221 35.7296 111.791z"/></g><path d="m1024-.0011811c565.541 0 1024 458.461 1024 1024 0 565.541-458.461 1024-1024 1024-565.541 0-1024-458.461-1024-1024 0-565.541 458.461-1024 1024-1024z" fill="none"/><circle cx="1033.2" cy="1124.16" fill="#ffecb3" r="357.331"/><circle cx="1033.2" cy="1124.16" fill="#efda9f" r="218.211"/><path d="m1083.85 589.293c.99567-.180709 2.00315-.236221 2.99646-.173622 2.68819.0153543-2.75315-.360236-3.95551-.79252l.959056.966142z" fill="#424242" fill-rule="nonzero"/><path d="m837.535 646.739c-75.3827-11.6374-146.052-40.1185-187.858-84.5446-5.35158-5.68583-19.8106-21.2646-19.6819-29.2618.111024-6.90119 5.79567-12.4063 12.6969-12.2953l768.812 12.9106c3.81733-.119291 7.64174 1.50591 10.1988 4.72796-.120473 1.13386 15.4394 20.7685 14.6693 39.9189-.518504 12.8965-5.863 25.1776-15.2185 37.1977-2.29843 3.32362-6.163 5.47441-10.5071 5.40119v-.0153543c-88.8119-1.48937-177.678-3.3626-266.478-5.49095-5.48268.396851-10.7728-2.87953-12.6945-8.31142l.0389764-.0141732c-4.83189-13.6488-9.53623-16.2756-13.4504-14.8914-6.17363 2.18268-13.265 9.27402-17.7768 13.7847-3.38268 3.38268-6.07678 6.0756-9.41576 7.38544-65.8146 37.1126-163.559 47.3563-253.335 33.4985z" fill="#e6e6e5" fill-rule="nonzero"/><path d="m1120.01 567.706v.0401575l-.525591 24.013c3.60709-.294095 7.76812 3.17244 12.026 15.2032l-.0389764.0141732c1.92166 5.43189 7.21182 8.70827 12.6945 8.31142 88.8001 2.12835 177.666 4.00158 266.478 5.49095v.0153543c4.3441.0732284 8.20867-2.07756 10.5071-5.40119 9.35552-12.0201 14.7-24.3012 15.2185-37.1977.0755906-1.85197-.00472441-3.70748-.206693-5.55119l-.0366142-.312992-316.116-4.6252z" fill="#ca2b03"/><path d="m1411.5 533.548-290.638-4.88032-.853938 39.0378 316.116 4.6252c-2.00433-17.1047-14.5347-33.0366-14.426-34.0548-2.55709-3.22205-6.3815-4.84725-10.1988-4.72796z" fill="#dd2c00"/><path d="m837.535 646.739c89.7757 13.8579 187.52 3.61418 253.335-33.4985 3.33898-1.30984 6.03308-4.00276 9.41576-7.38544 3.27756-3.27638 7.91575-7.91457 12.5752-11.0445-220.586 64.193-368.403 19.7055-481.633-56.8725 3.59174 8.32678 14.0693 19.6028 18.4488 24.2563 41.8063 44.426 112.475 72.9071 187.858 84.5446z" fill="#fffffe"/><path d="m603.935 1034.9c0-7.07127-6.02835-12.5091-13.0996-12.5091-7.07127 0-12.8043 5.73308-12.8043 12.8043v109.695c0 68.7544-29.8571 43.5331-30.1252 127.339l-.884646 212.359v.0011811c0 11.7768 4.80827 22.4752 12.5551 30.2209 7.74686 7.74686 18.4441 12.5551 30.2209 12.5551h.0011811.0011811c11.7768 0 22.4752-4.80827 30.2221-12.5551 7.74686-7.74686 12.8492-18.15 12.8492-29.9268v-214.128c0-89.3056-29.2311-53.5878-29.2311-129.991l.295276-105.865z" fill="#fffffe" fill-rule="nonzero"/><path d="m589.617 720.957c35.328 0 67.0926 18.3839 89.8879 48.1052 22.0772 28.7835 35.7307 68.3209 35.7307 111.79v.0011811c0 43.4681-13.6547 83.0068-35.7307 111.789-22.7953 29.7213-54.5587 48.104-89.8867 48.104-35.328 0-67.0926-18.3839-89.8879-48.104-22.0772-28.7835-35.7307-68.3221-35.7307-111.79 0-43.4693 13.6536-83.0068 35.7307-111.79 22.7953-29.7213 54.5587-48.1052 89.8867-48.1052z" fill="#fffffe" fill-rule="nonzero"/><path d="m589.619 727.993c28.0418 0 53.2559 14.5925 71.3493 38.1839 17.524 22.8473 28.363 54.2327 28.363 88.7363v.0011811c-.0011811 34.5036-10.839 65.8878-28.363 88.7339-18.0933 23.5925-43.3063 38.1839-71.3493 38.1839-28.0429 0-53.2559-14.5913-71.3504-38.1839-17.524-22.8473-28.3618-54.2315-28.3618-88.7351s10.8378-65.8878 28.3618-88.7351c18.0945-23.5925 43.3075-38.1851 71.3504-38.1851z" fill="#e6e6e5" fill-rule="nonzero"/><path d="m590.424 1152.94-13.9453.0767717c-5.60788 45.2776-29.7059 33.8469-29.9504 110.31l-.912993 219.282c-.0507874 24.2374 19.8201 44.1721 44.1721 44.1721.212599 0 .424016-.00472441.636615-.00826772v-373.833z" fill="#ca2b03"/><path d="m605.457 1152.85-14.7307.0814961-.302362.00236221v373.833h.046063c23.9398-.375591 43.7929-20.4343 43.7929-43.8591l.0011811-221.108c0-80.3197-22.8992-62.7036-28.8071-108.95z" fill="#dd2c00"/><g fill-rule="nonzero"><path d="m585.578 752.786c-1.60866 0-2.91378 1.30512-2.91378 2.91378s1.30512 2.91378 2.91378 2.91378c10.9571 0 21.3792 2.8004 30.8599 7.87442 9.92363 5.31142 18.8256 13.102 26.2453 22.7752 7.22717 9.42284 13.0559 20.6599 17.041 33.1276 3.84095 12.0177 5.96103 25.1858 5.96103 38.9823 0 1.60984 1.30512 2.91496 2.91378 2.91496s2.91378-1.30512 2.91378-2.91496c0-14.3835-2.22284-28.1516-6.2504-40.7528-4.18701-13.1008-10.3358-24.939-17.9752-34.8992-7.93229-10.3406-17.4614-18.6768-28.0973-24.3685-10.3134-5.52048-21.6638-8.56654-33.6118-8.56654z" fill="#cfcfcf"/><path d="m1408.62 723.146c.67441 1.75276.992127 3.67323.870473 5.6693l-9.02835 145.058c-.137008 2.17795-.201969 4.813-.20315 7.88268-.579922 42.7713 38.7083 61.467 78.0839 60.4701l.211417-.00590552.212599.00590552c39.3744.996851 78.6627-17.6988 78.0827-60.4701 0-3.06969-.0661418-5.70473-.201969-7.88268l-8.15788-150.728 35.1591 149.079c.23504 3.79607.351969 6.96615.351969 9.5315-.0011811 33.0709-11.2547 56.4166-29.0988 72.0721-17.4744 15.3284-55.8863 68.4201-67.7764 101.102-3.14055.196063-5.96221.311811-8.47442.35315l-.0968505.0011811-.0956694-.0011811c-2.51339-.0413386-5.33504-.157087-8.47442-.35315-11.8913-32.6823-50.3032-85.7741-67.7764-101.102-17.8441-15.6555-29.0988-39.0012-29.0988-72.0721l.351969-9.5315 35.1591-149.079z" fill="#fffffe"/><path d="m1450.18 723.771-13.7504 226.16c0 7.49646 6.07796 13.5756 13.5744 13.5756 7.49764 0 13.5756-6.07914 13.5756-13.5756z" fill="#fffffe"/><path d="m1503.68 720.958-7.18701 228.972c0 7.49646 6.07796 13.5756 13.5744 13.5756 7.49764 0 13.5756-6.07914 13.5756-13.5756l-19.963-228.972z" fill="#fffffe"/><path d="m1493.22 1044.41c0-7.49764-6.07796-4.513-13.5744-4.513-7.49764 0-13.8874-2.67166-13.8874 4.82481l.703938 77.1556c0 72.8906-31.6536 46.1516-31.937 135l-.937796 225.135v.0011811c0 12.4854 5.09764 23.8264 13.3099 32.0398 8.21221 8.21221 19.5543 13.3099 32.0386 13.3099h.0011811.0011811c12.4866 0 23.8276-5.09764 32.041-13.3099 8.21221-8.21339 13.6228-19.2425 13.6228-31.728v-227.01c0-94.6784-30.9898-56.8122-30.9898-137.812l-.392126-73.0926z" fill="#fffffe"/></g><path d="m1479.59 1143.54-14.3185.0791339c-5.7567 46.4859-30.4984 34.7492-30.7488 113.255l-.937796 225.135c-.0519685 24.8835 20.3492 45.3508 45.3508 45.3508.218504 0 .435827-.00472441.65315-.00826772l.0011811-383.811z" fill="#ca2b03"/><path d="m1495.03 1143.46-15.124.0838583-.309449.00236221-.0011811 383.811h.0472441c24.5788-.386221 44.9634-20.9799 44.9634-45.0296v-227.01c0-82.4634-23.5099-64.3772-29.576-111.858z" fill="#dd2c00"/></svg>